<svg xmlns="http://www.w3.org/2000/svg" width="1384" height="780" viewBox="60 -10 1384 780">
<rect x="60" y="-10" width="1384" height="780" fill="#ffffff"/>
<rect x="100" y="80" width="190" height="90" rx="10" fill="none" stroke="#1e1e1e" stroke-width="2"/>
<rect x="360" y="80" width="190" height="90" rx="10" fill="none" stroke="#1e1e1e" stroke-width="2"/>
<rect x="620" y="80" width="190" height="90" rx="10" fill="none" stroke="#1e1e1e" stroke-width="2"/>
<rect x="880" y="80" width="190" height="90" rx="10" fill="none" stroke="#1e1e1e" stroke-width="2"/>
<rect x="1140" y="80" width="190" height="90" rx="10" fill="none" stroke="#e03131" stroke-width="2"/>
<rect x="340" y="260" width="230" height="110" rx="10" fill="none" stroke="#1971c2" stroke-width="2"/>
<rect x="600" y="260" width="230" height="110" rx="10" fill="none" stroke="#1971c2" stroke-width="2"/>
<rect x="860" y="260" width="230" height="110" rx="10" fill="none" stroke="#1971c2" stroke-width="2"/>
<rect x="1120" y="260" width="230" height="110" rx="10" fill="none" stroke="#1971c2" stroke-width="2"/>
<polyline points="295.0,125.0 355.0,125.0" fill="none" stroke="#1e1e1e" stroke-width="2"/>
<line x1="355.0" y1="125.0" x2="344.6" y2="131.0" stroke="#1e1e1e" stroke-width="2"/>
<line x1="355.0" y1="125.0" x2="344.6" y2="119.0" stroke="#1e1e1e" stroke-width="2"/>
<polyline points="555.0,125.0 615.0,125.0" fill="none" stroke="#1e1e1e" stroke-width="2"/>
<line x1="615.0" y1="125.0" x2="604.6" y2="131.0" stroke="#1e1e1e" stroke-width="2"/>
<line x1="615.0" y1="125.0" x2="604.6" y2="119.0" stroke="#1e1e1e" stroke-width="2"/>
<polyline points="815.0,125.0 875.0,125.0" fill="none" stroke="#1e1e1e" stroke-width="2"/>
<line x1="875.0" y1="125.0" x2="864.6" y2="131.0" stroke="#1e1e1e" stroke-width="2"/>
<line x1="875.0" y1="125.0" x2="864.6" y2="119.0" stroke="#1e1e1e" stroke-width="2"/>
<polyline points="1075.0,125.0 1135.0,125.0" fill="none" stroke="#e03131" stroke-width="2"/>
<line x1="1135.0" y1="125.0" x2="1124.6" y2="131.0" stroke="#e03131" stroke-width="2"/>
<line x1="1135.0" y1="125.0" x2="1124.6" y2="119.0" stroke="#e03131" stroke-width="2"/>
<polyline points="455.0,175.0 455.0,255.0" fill="none" stroke="#1971c2" stroke-width="2"/>
<line x1="455.0" y1="255.0" x2="449.0" y2="244.6" stroke="#1971c2" stroke-width="2"/>
<line x1="455.0" y1="255.0" x2="461.0" y2="244.6" stroke="#1971c2" stroke-width="2"/>
<polyline points="715.0,175.0 715.0,255.0" fill="none" stroke="#1971c2" stroke-width="2"/>
<line x1="715.0" y1="255.0" x2="709.0" y2="244.6" stroke="#1971c2" stroke-width="2"/>
<line x1="715.0" y1="255.0" x2="721.0" y2="244.6" stroke="#1971c2" stroke-width="2"/>
<polyline points="975.0,175.0 975.0,255.0" fill="none" stroke="#1971c2" stroke-width="2"/>
<line x1="975.0" y1="255.0" x2="969.0" y2="244.6" stroke="#1971c2" stroke-width="2"/>
<line x1="975.0" y1="255.0" x2="981.0" y2="244.6" stroke="#1971c2" stroke-width="2"/>
<polyline points="1235.0,175.0 1235.0,255.0" fill="none" stroke="#e03131" stroke-width="2"/>
<line x1="1235.0" y1="255.0" x2="1229.0" y2="244.6" stroke="#e03131" stroke-width="2"/>
<line x1="1235.0" y1="255.0" x2="1241.0" y2="244.6" stroke="#e03131" stroke-width="2"/>
<polyline points="575.0,315.0 625.0,315.0" fill="none" stroke="#1971c2" stroke-width="2" stroke-dasharray="8,6"/>
<line x1="625.0" y1="315.0" x2="614.6" y2="321.0" stroke="#1971c2" stroke-width="2"/>
<line x1="625.0" y1="315.0" x2="614.6" y2="309.0" stroke="#1971c2" stroke-width="2"/>
<rect x="600" y="470" width="230" height="80" rx="10" fill="none" stroke="#f08c00" stroke-width="2"/>
<rect x="600" y="600" width="230" height="95" rx="10" fill="none" stroke="#f08c00" stroke-width="2"/>
<rect x="860" y="540" width="265" height="105" rx="10" fill="none" stroke="#e03131" stroke-width="2" stroke-dasharray="8,6"/>
<rect x="1160" y="470" width="230" height="80" rx="10" fill="none" stroke="#e03131" stroke-width="2"/>
<polyline points="715.0,375.0 715.0,465.0" fill="none" stroke="#f08c00" stroke-width="2"/>
<line x1="715.0" y1="465.0" x2="709.0" y2="454.6" stroke="#f08c00" stroke-width="2"/>
<line x1="715.0" y1="465.0" x2="721.0" y2="454.6" stroke="#f08c00" stroke-width="2"/>
<polyline points="715.0,555.0 715.0,595.0" fill="none" stroke="#f08c00" stroke-width="2"/>
<line x1="715.0" y1="595.0" x2="709.0" y2="584.6" stroke="#f08c00" stroke-width="2"/>
<line x1="715.0" y1="595.0" x2="721.0" y2="584.6" stroke="#f08c00" stroke-width="2"/>
<polyline points="1255.0,375.0 1255.0,465.0" fill="none" stroke="#e03131" stroke-width="2"/>
<line x1="1255.0" y1="465.0" x2="1249.0" y2="454.6" stroke="#e03131" stroke-width="2"/>
<line x1="1255.0" y1="465.0" x2="1261.0" y2="454.6" stroke="#e03131" stroke-width="2"/>
<polyline points="835.0,647.0 995.0,647.0 1155.0,542.0" fill="none" stroke="#f08c00" stroke-width="2" stroke-dasharray="8,6"/>
<line x1="1155.0" y1="542.0" x2="1143.7" y2="546.0" stroke="#f08c00" stroke-width="2"/>
<line x1="1155.0" y1="542.0" x2="1148.4" y2="552.2" stroke="#f08c00" stroke-width="2"/>
<text font-family="Helvetica, Arial, sans-serif" font-size="16" fill="#1e1e1e" text-anchor="start"><tspan x="100.0" y="33.6">flow-suggestion — to-spec upstream chain (map #20, decided in #23) + kestra-exam (decided in #24, 2026-08-01)</tspan></text>
<text font-family="Helvetica, Arial, sans-serif" font-size="16" fill="#1e1e1e" text-anchor="middle"><tspan x="195.0" y="118.6">grilling /</tspan><tspan x="195.0" y="138.6">wayfinder</tspan></text>
<text font-family="Helvetica, Arial, sans-serif" font-size="16" fill="#1e1e1e" text-anchor="middle"><tspan x="455.0" y="128.6">to-spec</tspan></text>
<text font-family="Helvetica, Arial, sans-serif" font-size="16" fill="#1e1e1e" text-anchor="middle"><tspan x="715.0" y="118.6">kestra-spec</tspan><tspan x="715.0" y="138.6">(raise in place)</tspan></text>
<text font-family="Helvetica, Arial, sans-serif" font-size="16" fill="#1e1e1e" text-anchor="middle"><tspan x="975.0" y="128.6">kestra-build</tspan></text>
<text font-family="Helvetica, Arial, sans-serif" font-size="16" fill="#e03131" text-anchor="middle"><tspan x="1235.0" y="128.6">kestra-run</tspan></text>
<text font-family="Helvetica, Arial, sans-serif" font-size="13" fill="#1971c2" text-anchor="middle"><tspan x="455.0" y="301.7">spec.md</tspan><tspan x="455.0" y="317.9">intent layer</tspan><tspan x="455.0" y="334.2">stories S1..Sn (human-vetted)</tspan></text>
<text font-family="Helvetica, Arial, sans-serif" font-size="13" fill="#1971c2" text-anchor="middle"><tspan x="715.0" y="293.6">spec.md (raised)</tspan><tspan x="715.0" y="309.8">+ provision layer:</tspan><tspan x="715.0" y="326.1">survey · reality constraints</tspan><tspan x="715.0" y="342.3">Exit Criteria · AC+source</tspan></text>
<text font-family="Helvetica, Arial, sans-serif" font-size="13" fill="#1971c2" text-anchor="middle"><tspan x="975.0" y="301.7">workflow.yaml</tspan><tspan x="975.0" y="317.9">stages · write_scope</tspan><tspan x="975.0" y="334.2">exit_criteria</tspan></text>
<text font-family="Helvetica, Arial, sans-serif" font-size="13" fill="#1971c2" text-anchor="middle"><tspan x="1235.0" y="301.7">spawns</tspan><tspan x="1235.0" y="317.9">spec pasted into</tspan><tspan x="1235.0" y="334.2">every spawn (#30 open)</tspan></text>
<text font-family="Helvetica, Arial, sans-serif" font-size="11" fill="#1971c2" text-anchor="start"><tspan x="558.0" y="381.4">SAME file — raised in place</tspan><tspan x="558.0" y="395.1">git diff = provenance</tspan></text>
<text font-family="Helvetica, Arial, sans-serif" font-size="12" fill="#f08c00" text-anchor="middle"><tspan x="715.0" y="494.9">kestra-exam (#24 — decided)</tspan><tspan x="715.0" y="509.9">authored right after kestra-spec</tspan><tspan x="715.0" y="524.9">blind to build planning</tspan></text>
<text font-family="Helvetica, Arial, sans-serif" font-size="11" fill="#1971c2" text-anchor="start"><tspan x="340.0" y="479.4">reads requirement layer ONLY:</tspan><tspan x="340.0" y="493.1">FR · edge cases · runtime invariants</tspan><tspan x="340.0" y="506.9">AC Coverage Map (AC + Source cols only)</tspan><tspan x="340.0" y="520.6">never: files-to-touch · survey · sol. arch</tspan></text>
<text font-family="Helvetica, Arial, sans-serif" font-size="11" fill="#f08c00" text-anchor="middle"><tspan x="715.0" y="623.4">exam script (black-box e2e)</tspan><tspan x="715.0" y="637.1">+ check #0 harness smoke</tspan><tspan x="715.0" y="650.9">+ exam-manifest (single file)</tspan><tspan x="715.0" y="664.6">hidden outside repo · pointer on tracker</tspan></text>
<text font-family="Helvetica, Arial, sans-serif" font-size="11" fill="#868e96" text-anchor="start"><tspan x="340.0" y="609.4">manifest rows: AC id → check id</tspan><tspan x="340.0" y="623.1">class: must-flip (red→green) | must-hold (green→green)</tspan><tspan x="340.0" y="636.9">red-proof: behavioral vs infrastructure red</tspan><tspan x="340.0" y="650.6">provenance flag (⚠ inferred) · verdict-contract template</tspan></text>
<text font-family="Helvetica, Arial, sans-serif" font-size="11" fill="#868e96" text-anchor="start"><tspan x="860.0" y="479.4">opt-in: full mode only —</tspan><tspan x="860.0" y="493.1">mode-prediction recorded in 0-spec.md by</tspan><tspan x="860.0" y="506.9">kestra-spec; build follows, no re-litigation</tspan></text>
<text font-family="Helvetica, Arial, sans-serif" font-size="11" fill="#e03131" text-anchor="middle"><tspan x="992.5" y="563.4">SPEC-SIDE PRECONDITIONS</tspan><tspan x="992.5" y="577.1">(kestra-spec template changes)</tspan><tspan x="992.5" y="590.9">1. External Interface section</tspan><tspan x="992.5" y="604.6">2. Source column in AC Coverage Map</tspan><tspan x="992.5" y="618.4">3. mode-prediction fact</tspan></text>
<text font-family="Helvetica, Arial, sans-serif" font-size="11" fill="#e03131" text-anchor="middle"><tspan x="1275.0" y="494.4">pre-delivery gate</tspan><tspan x="1275.0" y="508.1">verdict.md: pass/fail per check + evidence</tspan><tspan x="1275.0" y="521.9">(runner + fail path unbound — fog)</tspan></text>
<text font-family="Helvetica, Arial, sans-serif" font-size="11" fill="#868e96" text-anchor="start"><tspan x="340.0" y="404.4">HUMAN GATE: vet the PRD here —</tspan><tspan x="340.0" y="418.1">cheap stop before the expensive pass</tspan></text>
<text font-family="Helvetica, Arial, sans-serif" font-size="11" fill="#868e96" text-anchor="start"><tspan x="600.0" y="427.4">layer = provenance:</tspan><tspan x="600.0" y="441.1">to-spec lines = specified</tspan><tspan x="600.0" y="454.9">raise adds = S-ref or ⚠ inferred</tspan></text>
<text font-family="Helvetica, Arial, sans-serif" font-size="11" fill="#868e96" text-anchor="start"><tspan x="1120.0" y="404.4">Exit Criteria (declared in spec):</tspan><tspan x="1120.0" y="418.1">pass OR 2 rounds no progress → summon human</tspan><tspan x="1120.0" y="431.9">loop-shaped checks carry a progress metric</tspan></text>
<text font-family="Helvetica, Arial, sans-serif" font-size="11" fill="#868e96" text-anchor="start"><tspan x="100.0" y="269.4">decisions live here</tspan><tspan x="100.0" y="283.1">(conversation / map) —</tspan><tspan x="100.0" y="296.9">to-spec synthesizes,</tspan><tspan x="100.0" y="310.6">never interviews</tspan></text>
</svg>
